<svg width="785" height="1049" viewBox="0 0 785 1049" fill="" xmlns="http://www.w3.org/2000/svg">
<path fill-rule="evenodd" clip-rule="evenodd" d="M388 0H785V183H504.5V183.5H441.5C422.5 183.5 408 187.334 398 195C388.332 202.334 383.5 215.834 383.5 235.5V295.5C383.5 304.051 383.621 311.871 383.734 319.158L383.746 319.621C384.293 353.824 384.648 376.273 371.5 407.5C371.098 408.457 370.719 409.5 370.309 410.633C365.34 424.283 355.621 450.982 242.5 499C321.5 525 337.871 538.254 357.5 556.5C377.129 574.746 383.5 593.5 383.5 642.5V813.5C383.5 832.834 388.332 846.334 398 854C408 861.666 422.5 865.5 441.5 865.5H504.5V1041.5C489.168 1043.5 472.668 1045.17 455 1046.5C437.668 1047.83 418.5 1048.5 397.5 1048.5C316.168 1048.5 254.832 1029.67 213.5 992C172.168 954.334 151.5 900.834 151.5 831.5V651.5V608C151.5 564.891 103.316 544.266 73.7734 531.619L70 530L0 499L70 467.5C96 455.5 151.5 419.5 151.5 394.5V353.5V217.5C151.5 147.834 172.168 94.334 213.5 57C253.207 20.8145 311.375 2.00977 388 0.587891V0ZM554.5 599C609.453 599 654 554.453 654 499.5C654 444.547 609.453 400 554.5 400C499.547 400 455 444.547 455 499.5C455 554.453 499.547 599 554.5 599Z" fill="white"/>
</svg>
